{"accessors":[{"bufferView":3,"componentType":5126,"count":776,"max":[9.92831039428711,4.09827995300293,9.92831039428711],"min":[-9.92831039428711,3.9760899543762207,0],"type":"VEC3"},{"bufferView":3,"byteOffset":9312,"componentType":5126,"count":776,"max":[0.9974521398544312,1,0.9974521398544312],"min":[-0.9974521398544312,-1,-1],"type":"VEC3"},{"bufferView":2,"componentType":5126,"count":776,"max":[0.9004499912261963,0.9041900038719177],"min":[0.12335000187158585,0.6741300225257874],"type":"VEC2"},{"bufferView":1,"componentType":5125,"count":1920,"type":"SCALAR"},{"bufferView":3,"byteOffset":18624,"componentType":5126,"count":4080,"max":[22.028329849243164,1.917739987373352,2.6311700344085693],"min":[-3.403320074081421,-3.752389907836914,-3.3376400470733643],"type":"VEC3"},{"bufferView":3,"byteOffset":67584,"componentType":5126,"count":4080,"max":[0.9920797348022461,0.9435221552848816,0.943524956703186],"min":[-0.9920772314071655,-0.9435221552848816,-0.943524956703186],"type":"VEC3"},{"bufferView":2,"byteOffset":6208,"componentType":5126,"count":4080,"max":[0.08186999708414078,0.8982700109481812],"min":[0.07438000291585922,0.8907899856567383],"type":"VEC2"},{"bufferView":1,"byteOffset":7680,"componentType":5125,"count":4080,"type":"SCALAR"},{"bufferView":3,"byteOffset":116544,"componentType":5126,"count":1959,"max":[12.238530158996582,2.5706799030303955,2.0195999145507812],"min":[-2.58270001411438,-2.5706799030303955,-0.77920001745224],"type":"VEC3"},{"bufferView":3,"byteOffset":140052,"componentType":5126,"count":1959,"max":[0.9998636841773987,1,0.9999974966049194],"min":[-0.9996927380561829,-1,-0.9999974966049194],"type":"VEC3"},{"bufferView":3,"byteOffset":163560,"componentType":5126,"count":1959,"max":[1,1,1],"min":[0.9921568632125854,0.9921568632125854,0.9921568632125854],"type":"VEC3"},{"bufferView":2,"byteOffset":38848,"componentType":5126,"count":1959,"max":[0.8763200044631958,0.7190399765968323],"min":[0.12031999975442886,0.4869399964809418],"type":"VEC2"},{"bufferView":1,"byteOffset":24000,"componentType":5125,"count":3330,"type":"SCALAR"},{"bufferView":5,"componentType":5126,"count":3,"max":[1,0.024299999698996544,0,0,0,1,0,0,0,1,1,0,2.5291900634765625,0,0,1],"min":[0.9994099736213684,0,-0.024289999157190323,0,-0.024299999698996544,0,-1,0,-0.024289999157190323,0,0,0,0,-0.7014700174331665,-0.061480000615119934,1],"type":"MAT4"},{"bufferView":0,"componentType":5123,"count":1959,"type":"VEC4"},{"bufferView":4,"componentType":5126,"count":1959,"max":[1,0,0,0],"min":[1,0,0,0],"type":"VEC4"},{"bufferView":6,"componentType":5126,"count":30,"max":[1.25],"min":[0.041669998317956924],"type":"SCALAR"},{"bufferView":7,"componentType":5126,"count":30,"max":[0,0,0.10000000149011612],"min":[0,0,-0.10000000149011612],"type":"VEC3"},{"bufferView":6,"byteOffset":120,"componentType":5126,"count":1,"max":[0.041669998317956924],"min":[0.041669998317956924],"type":"SCALAR"},{"bufferView":8,"componentType":5126,"count":1,"max":[0.7071067690849304,0,0,0.7071067690849304],"min":[0.7071067690849304,0,0,0.7071067690849304],"type":"VEC4"},{"bufferView":6,"byteOffset":124,"componentType":5126,"count":30,"max":[1.25],"min":[0.041669998317956924],"type":"SCALAR"},{"bufferView":8,"byteOffset":16,"componentType":5126,"count":30,"max":[0.9998523592948914,0.009855041280388832,0.012149319052696228,0.9998523592948914],"min":[-0.984690248966217,-0.017116324976086617,-0.017116324976086617,0.00014753967116121203],"type":"VEC4"}],"animations":[{"channels":[{"sampler":0,"target":{"node":8,"path":"translation"}},{"sampler":1,"target":{"node":8,"path":"rotation"}},{"sampler":2,"target":{"node":9,"path":"rotation"}}],"name":"Flying","samplers":[{"input":16,"interpolation":"LINEAR","output":17},{"input":18,"interpolation":"LINEAR","output":19},{"input":20,"interpolation":"LINEAR","output":21}]}],"asset":{"extras":{"author":"Aki (https://sketchfab.com/Akishaqs)","license":"CC-BY-4.0 (http://creativecommons.org/licenses/by/4.0/)","source":"https://sketchfab.com/3d-models/plane-stylized-scene-1b96ff24435d47f9a450e05411b69e5b","title":"Plane | Stylized Scene"},"generator":"Sketchfab-12.67.0","version":"2.0"},"bufferViews":[{"buffer":0,"byteLength":15672,"byteStride":8,"name":"shortBufferViews","target":34962},{"buffer":0,"byteLength":37320,"byteOffset":15672,"name":"floatBufferViews","target":34963},{"buffer":0,"byteLength":54520,"byteOffset":52992,"byteStride":8,"name":"floatBufferViews","target":34962},{"buffer":0,"byteLength":187068,"byteOffset":107512,"byteStride":12,"name":"floatBufferViews","target":34962},{"buffer":0,"byteLength":31344,"byteOffset":294580,"byteStride":16,"name":"floatBufferViews","target":34962},{"buffer":0,"byteLength":192,"byteOffset":325924,"name":"floatBufferViews"},{"buffer":0,"byteLength":244,"byteOffset":326116,"name":"floatBufferViews"},{"buffer":0,"byteLength":360,"byteOffset":326360,"byteStride":12,"name":"floatBufferViews"},{"buffer":0,"byteLength":496,"byteOffset":326720,"byteStride":16,"name":"floatBufferViews"}],"buffers":[{"byteLength":327216,"uri":"data:application/octet-stream;base64,"}],"extensionsRequired":["KHR_materials_pbrSpecularGlossiness"],"extensionsUsed":["KHR_materials_pbrSpecularGlossiness"],"images":[{"uri":"data:application/octet-stream;base64,"}],"materials":[{"doubleSided":true,"extensions":{"KHR_materials_pbrSpecularGlossiness":{"diffuseFactor":[1,1,1,1],"diffuseTexture":{"index":0},"glossinessFactor":0,"specularFactor":[0,0,0]}},"name":"Atlas"}],"meshes":[{"name":"Rainbow_0","primitives":[{"attributes":{"NORMAL":1,"POSITION":0,"TEXCOORD_0":2},"indices":3,"material":0,"mode":4}]},{"name":"Clouds_0","primitives":[{"attributes":{"NORMAL":5,"POSITION":4,"TEXCOORD_0":6},"indices":7,"material":0,"mode":4}]},{"name":"Plane","primitives":[{"attributes":{"COLOR_0":10,"JOINTS_0":14,"NORMAL":9,"POSITION":8,"TEXCOORD_0":11,"WEIGHTS_0":15},"indices":12,"material":0,"mode":4}]}],"nodes":[{"children":[1],"matrix":[0.16976527869701385,0,0,0,0,3.7695464238266275e-17,-0.16976527869701385,0,0,0.16976527869701385,3.7695464238266275e-17,0,0,0,0,1],"name":"Sketchfab_model"},{"children":[2,4,6,12],"name":"Root"},{"children":[3],"name":"Rainbow"},{"mesh":0,"name":"Rainbow_0"},{"children":[5],"matrix":[1,0,0,0,0,1,0,0,0,0,1,0,-9.28966,4.389620000000001,0,1],"name":"Clouds"},{"mesh":1,"name":"Clouds_0"},{"children":[7,11,10],"name":"Armature"},{"children":[8],"name":"Armature_rootJoint"},{"children":[9],"name":"PlaneBody_Armature","rotation":[0.7071068286895752,0,0,0.7071068286895752],"scale":[1,1,1],"translation":[0,0,0]},{"name":"Rotor_Armature","rotation":[-0.00014753968571312726,-0.012149320915341377,-0.012149320915341377,0.9998524785041809],"scale":[1.000001072883606,0.9999954700469971,0.9999943971633911],"translation":[-2.5121500492095947,0.7627400159835815,0]},{"matrix":[0,-1,0,0,0,0,1,0,-1,0,0,0,-1.64726,0,0.7536600000000001,1],"name":"Plane"},{"mesh":2,"name":"Plane_0","skin":0},{"children":[13],"matrix":[0.70711,-0.70711,0,0,0.40825,0.40825,0.8165,0,-0.57735,-0.57735,0.57735,0,0,0,0,1],"name":"Sun"},{"name":"Sun"}],"samplers":[{"magFilter":9729,"minFilter":9987,"wrapS":10497,"wrapT":10497}],"scene":0,"scenes":[{"name":"Sketchfab_Scene","nodes":[0]}],"skins":[{"inverseBindMatrices":13,"joints":[7,8,9],"skeleton":7}],"textures":[{"sampler":0,"source":0}]}